<svg width="1440" height="203" viewBox="0 0 1440 203" fill="none" xmlns="http://www.w3.org/2000/svg">
<path opacity="0.2" d="M218.11 80.704C138.277 88.9239 9.67164 131.216 0.48291 154.763L8.70427 202.996H1440C1440 202.996 1439.5 111.301 1439.5 96.7091C1439.5 82.1172 1249 62.9674 1170 46.5184C1091 30.0693 1088 26.3827 991.5 24.3886C947.439 23.4782 957.5 69.8592 887 66.6814C834.326 64.3072 793 0.512499 733 4.49256C673 8.47261 639 71.1592 593.5 76.6319C565.429 80.0082 443.088 48.2341 422.5 54.532C347 77.6268 352.5 80.8239 323 83.597C296.5 86.0881 247 77.7294 218.11 80.704Z" fill="url(#paint0_linear)"/>
<path d="M199.735 81.4165L199.971 83.4025L199.735 81.4165ZM414.5 54.9534L413.975 53.0236L414.5 54.9534ZM732.5 2.99561L732.5 4.99561L732.5 2.99561ZM1.07597 153.03C24.9144 137.816 108.216 94.3119 199.971 83.4025L199.498 79.4305C106.956 90.4335 23.0798 134.242 -1.07597 149.659L1.07597 153.03ZM199.971 83.4025C230.525 79.7697 253.484 80.4862 272.873 81.7551C292.199 83.0198 308.274 84.8691 324.677 83.4086L324.323 79.4244C308.323 80.8489 292.732 79.0461 273.134 77.7636C253.599 76.4852 230.377 75.7591 199.498 79.4305L199.971 83.4025ZM324.677 83.4086C341.139 81.9429 359.978 76.3056 376.521 70.5682C384.806 67.6946 392.562 64.7787 399.179 62.3308C405.833 59.8692 411.272 57.9054 415.026 56.8831L413.975 53.0236C410.014 54.1021 404.396 56.1359 397.791 58.5793C391.15 61.0363 383.446 63.9327 375.21 66.789C358.71 72.5115 340.264 78.005 324.323 79.4244L324.677 83.4086ZM415.026 56.8831C422.116 54.9522 434.603 55.1703 450.13 56.7296C465.549 58.2783 483.633 61.1084 501.719 64.2022C519.73 67.283 537.91 70.6558 553.174 73.2253C568.435 75.7944 581.175 77.6324 588.5 77.6324V73.6324C581.575 73.6324 569.188 71.8649 553.838 69.2808C538.49 66.6971 520.573 63.3692 502.394 60.2595C484.291 57.1628 466.093 54.3128 450.529 52.7497C435.073 51.1972 421.877 50.8717 413.975 53.0236L415.026 56.8831ZM588.5 77.6324C599.067 77.6324 609.99 72.8483 621.116 65.9851C632.258 59.1115 643.912 49.948 655.888 40.9105C680.048 22.6786 705.526 4.99561 732.5 4.99561L732.5 0.995605C703.974 0.995605 677.446 19.631 653.478 37.7176C641.391 46.8393 629.95 55.8349 619.015 62.5808C608.064 69.337 597.927 73.6324 588.5 73.6324V77.6324ZM732.5 4.99561C768.596 4.99561 791.729 20.0927 814.554 35.4991C837.361 50.8934 859.959 66.6871 894.5 66.6871V62.6871C861.335 62.6871 839.683 47.6351 816.792 32.1837C793.918 16.7443 769.904 0.995605 732.5 0.995605L732.5 4.99561ZM894.5 66.6871C911.631 66.6871 923.162 64.0175 931.714 59.8933C940.273 55.7651 945.681 50.2534 950.606 44.9422C955.559 39.6026 959.933 34.587 966.6 30.8131C973.219 27.067 982.252 24.4773 996.5 24.4773V20.4773C981.749 20.4773 971.995 23.1637 964.63 27.332C957.315 31.4725 952.508 37.0093 947.674 42.2222C942.813 47.4635 937.827 52.5042 929.976 56.2904C922.117 60.0806 911.222 62.6871 894.5 62.6871V66.6871ZM996.5 24.4773C1095.51 24.4773 1157.19 46.9944 1194.73 52.0851L1195.27 48.1214C1158.79 43.1748 1095.75 20.4773 996.5 20.4773V24.4773ZM1194.73 52.0851C1213.19 54.5883 1268.28 63.6811 1321.65 73.1045C1348.33 77.8149 1374.57 82.6048 1395.57 86.6912C1416.64 90.7917 1432.27 94.1533 1437.87 96.0046L1439.13 92.2067C1433.23 90.256 1417.29 86.8436 1396.33 82.7649C1375.3 78.6722 1349.04 73.8778 1322.35 69.1654C1268.98 59.7433 1213.82 50.6369 1195.27 48.1214L1194.73 52.0851Z" fill="#1157B6"/>
<defs>
<linearGradient id="paint0_linear" x1="707.001" y1="5.39571" x2="710.487" y2="203.163" gradientUnits="userSpaceOnUse">
<stop offset="0.0208068" stop-color="#377BFF"/>
<stop offset="1" stop-color="#070A10"/>
</linearGradient>
</defs>
</svg>
