<svg width="74" height="80" viewBox="0 0 74 80" fill="none" xmlns="http://www.w3.org/2000/svg">
<path opacity="0.4" d="M8.99145 80V67.8638C13.6182 63.5707 17.9145 59.5253 21.8803 55.7275C25.9288 51.9298 29.4402 48.3798 32.4145 45.0774C35.3889 41.6925 37.7023 38.5139 39.3547 35.5418C41.0897 32.4871 41.9573 29.6388 41.9573 26.9969C41.9573 23.4469 41.0484 20.8462 39.2308 19.195C37.4957 17.4613 35.1823 16.5944 32.2906 16.5944C29.6467 16.5944 27.292 17.3787 25.2265 18.9474C23.2436 20.4334 21.302 22.1259 19.4017 24.0248L8 12.6316C10.0655 10.485 12.0897 8.62745 14.0726 7.05882C16.0556 5.40764 18.1211 4.08669 20.2692 3.09597C22.5 2.0227 24.8134 1.23839 27.2094 0.743032C29.688 0.247677 32.3732 0 35.265 0C39.2308 0 42.8661 0.619194 46.1709 1.85758C49.4758 3.09597 52.3262 4.82972 54.7222 7.05882C57.1182 9.28792 58.9772 12.0124 60.2991 15.2322C61.6211 18.3695 62.282 21.8782 62.282 25.7585C62.282 28.8958 61.5798 32.1156 60.1752 35.418C58.8533 38.6378 57.1182 41.8576 54.9701 45.0774C52.8219 48.2972 50.3846 51.4345 47.6581 54.4892C45.0142 57.5439 42.3704 60.4334 39.7265 63.1579C41.7094 62.9102 43.9402 62.7038 46.4188 62.5387C48.9801 62.291 51.1282 62.1672 52.8632 62.1672H66V80H8.99145Z" fill="#F9C66F"/>
</svg>
