<svg width="73" height="80" viewBox="0 0 73 80" fill="none" xmlns="http://www.w3.org/2000/svg">
<path opacity="0.4" d="M35.2924 80C29.0127 80 23.6186 79.0274 19.1102 77.0821C14.6017 75.1368 10.8983 72.462 8 69.0578L17.4195 55.927C19.7542 58.1155 22.25 59.8987 24.9068 61.2766C27.6441 62.5735 30.3814 63.2219 33.1186 63.2219C36.5 63.2219 39.197 62.614 41.2097 61.3982C43.2225 60.1824 44.2288 58.3587 44.2288 55.927C44.2288 54.4681 43.9873 53.1712 43.5042 52.0365C43.0212 50.9017 42.0953 49.9291 40.7267 49.1185C39.3581 48.308 37.4258 47.7001 34.9301 47.2948C32.4343 46.8896 29.1737 46.6869 25.1483 46.6869V32.0973C28.3686 32.0973 31.0254 31.8946 33.1186 31.4894C35.2924 31.0841 37.0233 30.5167 38.3114 29.7872C39.5996 28.9767 40.4852 28.0446 40.9682 26.9909C41.5318 25.9372 41.8136 24.7214 41.8136 23.3435C41.8136 18.6423 39.1568 16.2918 33.8432 16.2918C31.2669 16.2918 28.9725 16.8186 26.9597 17.8723C24.947 18.926 22.7331 20.5066 20.3178 22.614L9.9322 9.96961C13.7161 6.80851 17.6208 4.3769 21.6462 2.67477C25.6716 0.891591 30.0593 0 34.8093 0C43.2627 0 49.9852 1.90476 54.9767 5.71428C60.0487 9.44275 62.5847 14.7923 62.5847 21.7629C62.5847 29.2199 58.4788 34.772 50.2669 38.4195V38.9058C54.6144 40.2837 58.1568 42.5127 60.8941 45.5927C63.6314 48.5917 65 52.5228 65 57.386C65 61.0334 64.1949 64.2756 62.5847 67.1125C60.9746 69.8683 58.8008 72.2188 56.0636 74.1641C53.4068 76.1094 50.2669 77.5684 46.6441 78.541C43.0212 79.5137 39.2373 80 35.2924 80Z" fill="#F9C66F"/>
</svg>
