<svg width="40" height="40" viewBox="0 0 40 40" fill="none" xmlns="http://www.w3.org/2000/svg">
<rect x="0.5" y="0.5" width="39" height="39" rx="19.5" stroke="#E7CC40"/>
<path d="M30 13.174C29.2648 13.5008 28.4735 13.7212 27.6433 13.8199C28.491 13.3124 29.1409 12.5086 29.4475 11.5496C28.6546 12.0202 27.7768 12.3616 26.8418 12.5459C26.0936 11.7485 25.0271 11.25 23.8469 11.25C21.5811 11.25 19.744 13.0871 19.744 15.3533C19.744 15.6744 19.7802 15.9874 19.8504 16.2883C16.4401 16.1169 13.4164 14.4837 11.3925 12.0011C11.0393 12.6068 10.8371 13.3116 10.8371 14.0643C10.8371 15.4877 11.5614 16.7438 12.6624 17.4794C11.9901 17.4579 11.3572 17.2732 10.8038 16.9659C10.8034 16.9829 10.8034 17.0004 10.8034 17.0178C10.8034 19.0055 12.2179 20.6636 14.0952 21.0411C13.7509 21.1345 13.3883 21.1848 13.014 21.1848C12.7493 21.1848 12.4923 21.1593 12.2418 21.111C12.7643 22.741 14.2795 23.9277 16.0747 23.9606C14.6704 25.0612 12.9016 25.7172 10.9788 25.7172C10.648 25.7172 10.3211 25.6978 10 25.6596C11.8164 26.8244 13.973 27.5032 16.2899 27.5032C23.8376 27.5032 27.9644 21.251 27.9644 15.8287C27.9644 15.6509 27.9607 15.4735 27.953 15.2973C28.7544 14.7199 29.4503 13.9969 30 13.174Z" fill="#F5F5F5"/>
</svg>
