<svg width="24" height="24" viewBox="0 0 24 24" fill="none" xmlns="http://www.w3.org/2000/svg">
<path d="M13.4451 11.1823L13.4451 2.61626C13.4451 1.96976 12.9602 1.48489 12.3137 1.48489C11.6672 1.48489 11.1823 1.96976 11.1823 2.61626L11.1823 11.1824L2.61624 11.1824C1.96975 11.1824 1.48487 11.6672 1.48487 12.3137C1.48487 12.9602 1.96975 13.4451 2.61624 13.4451L11.1823 13.4451L11.1823 22.0112C11.1823 22.6577 11.6672 23.1426 12.3137 23.1426C12.637 23.1426 12.8794 23.0617 13.1218 22.8193C13.3643 22.5769 13.4451 22.3344 13.4451 22.0112L13.4451 13.4451L22.0112 13.4451C22.3344 13.4451 22.6577 13.2835 22.8193 13.1218C22.9809 12.9602 23.1425 12.637 23.1425 12.3137C23.1425 11.6672 22.6577 11.1824 22.0112 11.1824L13.4451 11.1823Z" fill="#E0E0E0"/>
</svg>
