<svg width="40" height="40" viewBox="0 0 40 40" fill="none" xmlns="http://www.w3.org/2000/svg">
<rect x="0.5" y="0.5" width="39" height="39" rx="19.5" stroke="#E7CC40"/>
<path d="M16.8476 10.5364C14.3905 11.3815 12.2654 13.2019 11.0701 15.4773C10.6716 16.2575 10.3396 17.1026 10.2068 18.0128C9.74194 20.1582 10.074 22.4987 11.0701 24.4491C11.7342 25.7493 12.6639 26.8545 13.8592 27.7647C14.9217 28.6099 16.1835 29.26 17.578 29.5851C19.3046 30.0402 21.0976 30.0402 22.7578 29.6501C24.2852 29.325 25.7462 28.6099 26.9415 27.5047C28.2033 26.3995 29.0666 24.9692 29.5314 23.3439C30.0627 21.6535 30.1291 19.8332 29.797 18.0778C26.6095 18.0778 23.4219 18.0778 20.2343 18.0778C20.2343 19.3781 20.2343 20.6783 20.2343 21.9786C22.0938 21.9786 23.9532 21.9786 25.7462 21.9786C25.547 23.2138 24.7501 24.3841 23.6875 25.0342C23.0235 25.4893 22.2266 25.7493 21.4297 25.8793C20.6328 26.0094 19.7695 26.0094 18.9726 25.8793C18.1757 25.7493 17.3788 25.3592 16.7147 24.9042C15.6522 24.189 14.7889 23.0838 14.3905 21.8486C13.9256 20.6133 13.9256 19.2481 14.3905 17.9478C14.7225 17.1026 15.1874 16.2575 15.8514 15.6073C16.6483 14.7622 17.7109 14.1771 18.9062 13.982C19.9023 13.787 20.8984 13.787 21.8945 14.1121C22.6914 14.3721 23.4883 14.8272 24.086 15.3473C24.6837 14.7622 25.3477 14.1121 25.9454 13.5269C26.2774 13.2019 26.6095 12.8768 26.9415 12.5517C26.0118 11.7066 24.8829 10.9914 23.6875 10.5364C21.4961 9.82122 19.039 9.82122 16.8476 10.5364Z" fill="#F5F5F5"/>
</svg>
