<svg width="36" height="36" viewBox="0 0 36 36" fill="none" xmlns="http://www.w3.org/2000/svg">
<rect x="0.5" y="0.5" width="35" height="35" rx="17.5" stroke="#E7CC40"/>
<path d="M15.1628 9.48272C12.9514 10.2434 11.0389 11.8817 9.96308 13.9296C9.60448 14.6317 9.30565 15.3924 9.18612 16.2115C8.76775 18.1424 9.06658 20.2488 9.96308 22.0042C10.5608 23.1744 11.3975 24.1691 12.4733 24.9882C13.4296 25.7489 14.5651 26.334 15.8202 26.6266C17.3742 27.0361 18.9879 27.0361 20.4821 26.6851C21.8567 26.3925 23.1716 25.7489 24.2474 24.7542C25.3829 23.7595 26.1599 22.4723 26.5783 21.0095C27.0564 19.4882 27.1162 17.8499 26.8173 16.27C23.9485 16.27 21.0797 16.27 18.2109 16.27C18.2109 17.4403 18.2109 18.6105 18.2109 19.7807C19.8844 19.7807 21.5579 19.7807 23.1716 19.7807C22.9923 20.8924 22.2751 21.9457 21.3188 22.5308C20.7211 22.9403 20.0039 23.1744 19.2867 23.2914C18.5695 23.4084 17.7925 23.4084 17.0753 23.2914C16.3581 23.1744 15.6409 22.8233 15.0433 22.4137C14.087 21.7701 13.31 20.7754 12.9514 19.6637C12.5331 18.552 12.5331 17.3233 12.9514 16.153C13.2503 15.3924 13.6686 14.6317 14.2663 14.0466C14.9835 13.286 15.9398 12.7594 17.0156 12.5838C17.9121 12.4083 18.8086 12.4083 19.7051 12.7008C20.4223 12.9349 21.1395 13.3445 21.6774 13.8126C22.2153 13.286 22.813 12.7008 23.3509 12.1742C23.6497 11.8817 23.9485 11.5891 24.2474 11.2966C23.4106 10.5359 22.3946 9.8923 21.3188 9.48272C19.3465 8.83909 17.1351 8.83909 15.1628 9.48272Z" fill="#F5F5F5"/>
</svg>
