<svg width="36" height="36" viewBox="0 0 36 36" fill="none" xmlns="http://www.w3.org/2000/svg">
<rect x="0.5" y="0.5" width="35" height="35" rx="17.5" stroke="#E7CC40"/>
<path d="M27 11.8566C26.3383 12.1507 25.6261 12.3491 24.8789 12.4379C25.6419 11.9812 26.2268 11.2577 26.5027 10.3947C25.7891 10.8181 24.9991 11.1254 24.1577 11.2913C23.4843 10.5737 22.5244 10.125 21.4622 10.125C19.423 10.125 17.7696 11.7784 17.7696 13.818C17.7696 14.107 17.8021 14.3887 17.8654 14.6594C14.7961 14.5052 12.0747 13.0353 10.2533 10.801C9.93539 11.3461 9.75343 11.9804 9.75343 12.6579C9.75343 13.9389 10.4053 15.0694 11.3962 15.7315C10.7911 15.7121 10.2215 15.5459 9.72346 15.2693C9.7231 15.2846 9.7231 15.3003 9.7231 15.316C9.7231 17.105 10.9961 18.5972 12.6856 18.937C12.3758 19.021 12.0495 19.0664 11.7126 19.0664C11.4744 19.0664 11.2431 19.0433 11.0177 18.9999C11.4879 20.4669 12.8515 21.5349 14.4673 21.5645C13.2034 22.5551 11.6114 23.1455 9.88095 23.1455C9.58316 23.1455 9.28902 23.128 9 23.0936C10.6347 24.1419 12.5757 24.7529 14.6609 24.7529C21.4538 24.7529 25.168 19.1259 25.168 14.2458C25.168 14.0858 25.1647 13.9261 25.1577 13.7675C25.879 13.248 26.5053 12.5972 27 11.8566Z" fill="#F5F5F5"/>
</svg>
