<svg width="24" height="24" viewBox="0 0 24 24" fill="none" xmlns="http://www.w3.org/2000/svg">
<path d="M13.6 12L19.6571 5.94286C20.1143 5.48571 20.1143 4.8 19.6571 4.34286C19.2 3.88571 18.5143 3.88571 18.0571 4.34286L12 10.4L5.94286 4.34286C5.48571 3.88571 4.8 3.88571 4.34286 4.34286C3.88571 4.8 3.88571 5.48571 4.34286 5.94286L10.4 12L4.34286 18.0571C3.88571 18.5143 3.88571 19.2 4.34286 19.6571C4.57143 19.8857 4.8 20 5.14286 20C5.48571 20 5.71429 19.8857 5.94286 19.6571L12 13.6L18.0571 19.6571C18.2857 19.8857 18.6286 20 18.8571 20C19.0857 20 19.4286 19.8857 19.6571 19.6571C20.1143 19.2 20.1143 18.5143 19.6571 18.0571L13.6 12Z" fill="#E0E0E0"/>
</svg>
