<svg width="156" height="50" viewBox="0 0 156 50" fill="none" xmlns="http://www.w3.org/2000/svg">
<path d="M3.78826 0L0 6.67614C2.9932 8.94886 8.97959 12.0739 8.97959 12.0739C8.97959 12.0739 3.08673 24.4318 9.2602 38.4943L0.841836 43.4659L4.77041 50L39.5663 29.8295C41.8112 28.5511 41.8112 22.1591 39.5663 20.8807C37.4617 19.6023 15.4337 6.81818 3.78826 0Z" fill="#1157B6"/>
<path d="M28.9811 26.6838C30.3402 25.9153 30.3339 23.9552 28.9697 23.1955L18.5566 17.3966C17.2235 16.6542 15.5835 17.6181 15.5835 19.1439V30.831C15.5835 32.3626 17.2347 33.3258 18.5679 32.5719L28.9811 26.6838Z" fill="#EAE8EE"/>
<path d="M64.6596 32.8125C62.4397 32.8125 60.6698 32.1829 59.3499 30.9236C58.05 29.6447 57.36 27.8542 57.28 25.5521L57.25 24.8142L57.28 24.0764C57.38 21.8333 58.08 20.0723 59.3799 18.7934C60.6998 17.5145 62.4597 16.875 64.6596 16.875C67.0194 16.875 68.8393 17.5833 70.1193 19C71.4192 20.4167 72.0692 22.3056 72.0692 24.6667V25.2865C72.0692 25.4832 71.9992 25.6505 71.8592 25.7882C71.7192 25.9259 71.5392 25.9948 71.3192 25.9948H61.3598V26.2309C61.3998 27.3131 61.6997 28.228 62.2597 28.9757C62.8397 29.7037 63.6296 30.0677 64.6296 30.0677C65.8095 30.0677 66.7595 29.6152 67.4794 28.7101C67.6594 28.4936 67.7994 28.3559 67.8994 28.2969C68.0194 28.2378 68.1894 28.2083 68.4094 28.2083H70.9892C71.1692 28.2083 71.3192 28.2674 71.4392 28.3854C71.5792 28.4838 71.6492 28.6117 71.6492 28.7691C71.6492 29.2413 71.3592 29.8021 70.7792 30.4514C70.2193 31.081 69.4093 31.6319 68.3494 32.1042C67.2894 32.5764 66.0595 32.8125 64.6596 32.8125ZM67.9894 23.5156V23.4271C67.9894 22.2662 67.6894 21.3316 67.0894 20.6233C66.5095 19.9149 65.6995 19.5608 64.6596 19.5608C63.6196 19.5608 62.8097 19.9149 62.2297 20.6233C61.6498 21.3316 61.3598 22.2662 61.3598 23.4271V23.5156H67.9894Z" fill="#EAE8EE"/>
<path d="M77.4288 38.125C77.2688 38.125 77.1288 38.066 77.0088 37.9479C76.8888 37.8299 76.8288 37.6921 76.8288 37.5347C76.8288 37.3576 76.8688 37.2002 76.9488 37.0625L79.2887 31.6024L73.529 18.2326C73.449 18.0556 73.409 17.9178 73.409 17.8194C73.429 17.6424 73.499 17.4948 73.619 17.3767C73.739 17.239 73.889 17.1701 74.069 17.1701H76.4988C76.8788 17.1701 77.1488 17.3571 77.3088 17.7309L81.2986 27.3819L85.4083 17.7309C85.5683 17.3571 85.8383 17.1701 86.2183 17.1701H88.6182C88.7781 17.1701 88.9181 17.2292 89.0381 17.3472C89.1781 17.4653 89.2481 17.603 89.2481 17.7604C89.2481 17.8981 89.2081 18.0556 89.1281 18.2326L80.6386 37.5642C80.4586 37.9381 80.1786 38.125 79.7986 38.125H77.4288Z" fill="#EAE8EE"/>
<path d="M97.9975 32.8125C95.7777 32.8125 94.0078 32.1829 92.6878 30.9236C91.3879 29.6447 90.698 27.8542 90.618 25.5521L90.588 24.8142L90.618 24.0764C90.718 21.8333 91.4179 20.0723 92.7178 18.7934C94.0378 17.5145 95.7977 16.875 97.9975 16.875C100.357 16.875 102.177 17.5833 103.457 19C104.757 20.4167 105.407 22.3056 105.407 24.6667V25.2865C105.407 25.4832 105.337 25.6505 105.197 25.7882C105.057 25.9259 104.877 25.9948 104.657 25.9948H94.6977V26.2309C94.7377 27.3131 95.0377 28.228 95.5977 28.9757C96.1776 29.7037 96.9676 30.0677 97.9675 30.0677C99.1475 30.0677 100.097 29.6152 100.817 28.7101C100.997 28.4936 101.137 28.3559 101.237 28.2969C101.357 28.2378 101.527 28.2083 101.747 28.2083H104.327C104.507 28.2083 104.657 28.2674 104.777 28.3854C104.917 28.4838 104.987 28.6117 104.987 28.7691C104.987 29.2413 104.697 29.8021 104.117 30.4514C103.557 31.081 102.747 31.6319 101.687 32.1042C100.627 32.5764 99.3975 32.8125 97.9975 32.8125ZM101.327 23.5156V23.4271C101.327 22.2662 101.027 21.3316 100.427 20.6233C99.8474 19.9149 99.0375 19.5608 97.9975 19.5608C96.9576 19.5608 96.1476 19.9149 95.5677 20.6233C94.9877 21.3316 94.6977 22.2662 94.6977 23.4271V23.5156H101.327Z" fill="#EAE8EE"/>
<path d="M114.501 32.8125C113.001 32.8125 111.741 32.5961 110.721 32.1632C109.701 31.7106 108.941 31.1892 108.441 30.599C107.961 29.989 107.721 29.4676 107.721 29.0347C107.721 28.838 107.791 28.6806 107.931 28.5625C108.071 28.4444 108.231 28.3854 108.411 28.3854H110.781C110.961 28.3854 111.111 28.4543 111.231 28.592C111.311 28.651 111.521 28.8281 111.861 29.1233C112.201 29.4381 112.601 29.684 113.061 29.8611C113.521 30.0382 114.031 30.1267 114.591 30.1267C115.391 30.1267 116.051 29.9693 116.571 29.6545C117.091 29.3397 117.351 28.9068 117.351 28.3559C117.351 27.9427 117.231 27.6082 116.991 27.3524C116.771 27.0966 116.361 26.8704 115.761 26.6736C115.161 26.4572 114.271 26.2309 113.091 25.9948C111.391 25.6406 110.131 25.0995 109.311 24.3715C108.511 23.6435 108.111 22.6794 108.111 21.4792C108.111 20.6921 108.351 19.9543 108.831 19.2656C109.311 18.5573 110.021 17.9867 110.961 17.5538C111.921 17.1013 113.061 16.875 114.381 16.875C115.721 16.875 116.881 17.0914 117.861 17.5243C118.841 17.9375 119.581 18.4392 120.081 19.0295C120.601 19.6001 120.861 20.1117 120.861 20.5642C120.861 20.7413 120.791 20.8987 120.651 21.0365C120.531 21.1545 120.381 21.2135 120.201 21.2135H117.981C117.821 21.2135 117.651 21.1447 117.471 21.0069C117.331 20.9086 117.111 20.7216 116.811 20.4462C116.511 20.1707 116.161 19.9543 115.761 19.7969C115.361 19.6395 114.891 19.5608 114.351 19.5608C113.611 19.5608 113.031 19.7182 112.611 20.033C112.211 20.3478 112.011 20.761 112.011 21.2726C112.011 21.6464 112.111 21.9514 112.311 22.1875C112.511 22.4236 112.901 22.6499 113.481 22.8663C114.061 23.0828 114.931 23.2992 116.091 23.5156C118.011 23.8895 119.381 24.4699 120.201 25.2569C121.041 26.044 121.461 27.0081 121.461 28.1493C121.461 29.5266 120.851 30.6481 119.631 31.5139C118.411 32.3796 116.701 32.8125 114.501 32.8125Z" fill="#EAE8EE"/>
<path d="M131.277 32.8125C129.057 32.8125 127.287 32.1829 125.967 30.9236C124.667 29.6447 123.977 27.8542 123.897 25.5521L123.867 24.8142L123.897 24.0764C123.997 21.8333 124.697 20.0723 125.997 18.7934C127.317 17.5145 129.077 16.875 131.277 16.875C133.637 16.875 135.457 17.5833 136.737 19C138.037 20.4167 138.686 22.3056 138.686 24.6667V25.2865C138.686 25.4832 138.616 25.6505 138.477 25.7882C138.337 25.9259 138.157 25.9948 137.937 25.9948H127.977V26.2309C128.017 27.3131 128.317 28.228 128.877 28.9757C129.457 29.7037 130.247 30.0677 131.247 30.0677C132.427 30.0677 133.377 29.6152 134.097 28.7101C134.277 28.4936 134.417 28.3559 134.517 28.2969C134.637 28.2378 134.807 28.2083 135.027 28.2083H137.607C137.787 28.2083 137.937 28.2674 138.057 28.3854C138.197 28.4838 138.267 28.6117 138.267 28.7691C138.267 29.2413 137.977 29.8021 137.397 30.4514C136.837 31.081 136.027 31.6319 134.967 32.1042C133.907 32.5764 132.677 32.8125 131.277 32.8125ZM134.607 23.5156V23.4271C134.607 22.2662 134.307 21.3316 133.707 20.6233C133.127 19.9149 132.317 19.5608 131.277 19.5608C130.237 19.5608 129.427 19.9149 128.847 20.6233C128.267 21.3316 127.977 22.2662 127.977 23.4271V23.5156H134.607Z" fill="#EAE8EE"/>
<path d="M148.59 32.8125C146.371 32.8125 144.601 32.1829 143.281 30.9236C141.981 29.6447 141.291 27.8542 141.211 25.5521L141.181 24.8142L141.211 24.0764C141.311 21.8333 142.011 20.0723 143.311 18.7934C144.631 17.5145 146.391 16.875 148.59 16.875C150.95 16.875 152.77 17.5833 154.05 19C155.35 20.4167 156 22.3056 156 24.6667V25.2865C156 25.4832 155.93 25.6505 155.79 25.7882C155.65 25.9259 155.47 25.9948 155.25 25.9948H145.291V26.2309C145.331 27.3131 145.631 28.228 146.191 28.9757C146.77 29.7037 147.56 30.0677 148.56 30.0677C149.74 30.0677 150.69 29.6152 151.41 28.7101C151.59 28.4936 151.73 28.3559 151.83 28.2969C151.95 28.2378 152.12 28.2083 152.34 28.2083H154.92C155.1 28.2083 155.25 28.2674 155.37 28.3854C155.51 28.4838 155.58 28.6117 155.58 28.7691C155.58 29.2413 155.29 29.8021 154.71 30.4514C154.15 31.081 153.34 31.6319 152.28 32.1042C151.22 32.5764 149.99 32.8125 148.59 32.8125ZM151.92 23.5156V23.4271C151.92 22.2662 151.62 21.3316 151.02 20.6233C150.44 19.9149 149.63 19.5608 148.59 19.5608C147.55 19.5608 146.74 19.9149 146.161 20.6233C145.581 21.3316 145.291 22.2662 145.291 23.4271V23.5156H151.92Z" fill="#EAE8EE"/>
</svg>
