<svg width="125" height="40" viewBox="0 0 125 40" fill="none" xmlns="http://www.w3.org/2000/svg">
<path d="M3.03061 0L0 5.34091C2.39456 7.15909 7.18367 9.65909 7.18367 9.65909C7.18367 9.65909 2.46939 19.5455 7.40816 30.7955L0.673469 34.7727L3.81633 40L31.6531 23.8636C33.449 22.8409 33.449 17.7273 31.6531 16.7045C29.9694 15.6818 12.3469 5.45455 3.03061 0Z" fill="#1157B6"/>
<path d="M22.5644 21.6979C23.9235 20.9294 23.9172 18.9693 22.553 18.2096L15.4399 14.2484C14.1068 13.506 12.4668 14.4699 12.4668 15.9957V23.9791C12.4668 25.5107 14.118 26.4739 15.4512 25.72L22.5644 21.6979Z" fill="#EAE8EE"/>
<path d="M51.728 26.25C49.9521 26.25 48.5361 25.7463 47.4802 24.7389C46.4403 23.7157 45.8883 22.2833 45.8243 20.4417L45.8003 19.8514L45.8243 19.2611C45.9043 17.4667 46.4643 16.0579 47.5042 15.0347C48.5601 14.0116 49.9681 13.5 51.728 13.5C53.6159 13.5 55.0718 14.0667 56.0957 15.2C57.1357 16.3333 57.6556 17.8444 57.6556 19.7333V20.2292C57.6556 20.3866 57.5996 20.5204 57.4876 20.6306C57.3756 20.7407 57.2316 20.7958 57.0557 20.7958H49.0881V20.9847C49.1201 21.8505 49.3601 22.5824 49.8081 23.1806C50.272 23.763 50.904 24.0542 51.704 24.0542C52.6479 24.0542 53.4079 23.6921 53.9838 22.9681C54.1278 22.7949 54.2398 22.6847 54.3198 22.6375C54.4158 22.5903 54.5518 22.5667 54.7278 22.5667H56.7917C56.9357 22.5667 57.0557 22.6139 57.1517 22.7083C57.2636 22.787 57.3196 22.8893 57.3196 23.0153C57.3196 23.3931 57.0877 23.8417 56.6237 24.3611C56.1757 24.8648 55.5277 25.3056 54.6798 25.6833C53.8318 26.0611 52.8479 26.25 51.728 26.25ZM54.3918 18.8125V18.7417C54.3918 17.813 54.1518 17.0653 53.6718 16.4986C53.2079 15.9319 52.5599 15.6486 51.728 15.6486C50.896 15.6486 50.248 15.9319 49.7841 16.4986C49.3201 17.0653 49.0881 17.813 49.0881 18.7417V18.8125H54.3918Z" fill="#EAE8EE"/>
<path d="M61.9433 30.5C61.8153 30.5 61.7033 30.4528 61.6073 30.3583C61.5113 30.2639 61.4633 30.1537 61.4633 30.0278C61.4633 29.8861 61.4953 29.7602 61.5593 29.65L63.4312 25.2819L58.8235 14.5861C58.7595 14.4444 58.7275 14.3343 58.7275 14.2556C58.7435 14.1139 58.7995 13.9958 58.8955 13.9014C58.9915 13.7912 59.1115 13.7361 59.2555 13.7361H61.1994C61.5033 13.7361 61.7193 13.8856 61.8473 14.1847L65.0391 21.9056L68.327 14.1847C68.455 13.8856 68.6709 13.7361 68.9749 13.7361H70.8948C71.0228 13.7361 71.1348 13.7833 71.2308 13.8778C71.3428 13.9722 71.3988 14.0824 71.3988 14.2083C71.3988 14.3185 71.3668 14.4444 71.3028 14.5861L64.5112 30.0514C64.3672 30.3505 64.1432 30.5 63.8392 30.5H61.9433Z" fill="#EAE8EE"/>
<path d="M78.3983 26.25C76.6224 26.25 75.2065 25.7463 74.1506 24.7389C73.1106 23.7157 72.5587 22.2833 72.4947 20.4417L72.4707 19.8514L72.4947 19.2611C72.5747 17.4667 73.1346 16.0579 74.1746 15.0347C75.2305 14.0116 76.6384 13.5 78.3983 13.5C80.2862 13.5 81.7421 14.0667 82.7661 15.2C83.806 16.3333 84.326 17.8444 84.326 19.7333V20.2292C84.326 20.3866 84.27 20.5204 84.158 20.6306C84.046 20.7407 83.902 20.7958 83.726 20.7958H75.7585V20.9847C75.7905 21.8505 76.0305 22.5824 76.4784 23.1806C76.9424 23.763 77.5744 24.0542 78.3743 24.0542C79.3183 24.0542 80.0782 23.6921 80.6542 22.9681C80.7982 22.7949 80.9102 22.6847 80.9902 22.6375C81.0862 22.5903 81.2222 22.5667 81.3982 22.5667H83.462C83.606 22.5667 83.726 22.6139 83.822 22.7083C83.934 22.787 83.99 22.8893 83.99 23.0153C83.99 23.3931 83.758 23.8417 83.294 24.3611C82.8461 24.8648 82.1981 25.3056 81.3502 25.6833C80.5022 26.0611 79.5183 26.25 78.3983 26.25ZM81.0622 18.8125V18.7417C81.0622 17.813 80.8222 17.0653 80.3422 16.4986C79.8782 15.9319 79.2303 15.6486 78.3983 15.6486C77.5664 15.6486 76.9184 15.9319 76.4544 16.4986C75.9905 17.0653 75.7585 17.813 75.7585 18.7417V18.8125H81.0622Z" fill="#EAE8EE"/>
<path d="M91.6011 26.25C90.4012 26.25 89.3933 26.0768 88.5773 25.7306C87.7614 25.3685 87.1534 24.9514 86.7534 24.4792C86.3694 23.9912 86.1774 23.5741 86.1774 23.2278C86.1774 23.0704 86.2334 22.9444 86.3454 22.85C86.4574 22.7556 86.5854 22.7083 86.7294 22.7083H88.6253C88.7693 22.7083 88.8893 22.7634 88.9853 22.8736C89.0493 22.9208 89.2173 23.0625 89.4893 23.2986C89.7612 23.5505 90.0812 23.7472 90.4492 23.8889C90.8172 24.0306 91.2252 24.1014 91.6731 24.1014C92.3131 24.1014 92.8411 23.9755 93.257 23.7236C93.673 23.4718 93.881 23.1255 93.881 22.6847C93.881 22.3542 93.785 22.0866 93.593 21.8819C93.417 21.6773 93.0891 21.4963 92.6091 21.3389C92.1291 21.1657 91.4172 20.9847 90.4732 20.7958C89.1133 20.5125 88.1053 20.0796 87.4494 19.4972C86.8094 18.9148 86.4894 18.1435 86.4894 17.1833C86.4894 16.5537 86.6814 15.9634 87.0654 15.4125C87.4494 14.8458 88.0173 14.3894 88.7693 14.0431C89.5373 13.681 90.4492 13.5 91.5051 13.5C92.5771 13.5 93.505 13.6731 94.289 14.0194C95.0729 14.35 95.6649 14.7514 96.0649 15.2236C96.4809 15.6801 96.6889 16.0894 96.6889 16.4514C96.6889 16.5931 96.6329 16.719 96.5209 16.8292C96.4249 16.9236 96.3049 16.9708 96.1609 16.9708H94.385C94.257 16.9708 94.121 16.9157 93.977 16.8056C93.865 16.7269 93.689 16.5773 93.449 16.3569C93.209 16.1366 92.9291 15.9634 92.6091 15.8375C92.2891 15.7116 91.9131 15.6486 91.4811 15.6486C90.8892 15.6486 90.4252 15.7745 90.0892 16.0264C89.7692 16.2782 89.6093 16.6088 89.6093 17.0181C89.6093 17.3171 89.6892 17.5611 89.8492 17.75C90.0092 17.9389 90.3212 18.1199 90.7852 18.2931C91.2492 18.4662 91.9451 18.6394 92.8731 18.8125C94.409 19.1116 95.5049 19.5759 96.1609 20.2056C96.8328 20.8352 97.1688 21.6065 97.1688 22.5194C97.1688 23.6213 96.6809 24.5185 95.7049 25.2111C94.729 25.9037 93.361 26.25 91.6011 26.25Z" fill="#EAE8EE"/>
<path d="M105.022 26.25C103.246 26.25 101.83 25.7463 100.774 24.7389C99.7341 23.7157 99.1821 22.2833 99.1182 20.4417L99.0942 19.8514L99.1182 19.2611C99.1981 17.4667 99.7581 16.0579 100.798 15.0347C101.854 14.0116 103.262 13.5 105.022 13.5C106.91 13.5 108.366 14.0667 109.39 15.2C110.43 16.3333 110.949 17.8444 110.949 19.7333V20.2292C110.949 20.3866 110.893 20.5204 110.781 20.6306C110.67 20.7407 110.526 20.7958 110.35 20.7958H102.382V20.9847C102.414 21.8505 102.654 22.5824 103.102 23.1806C103.566 23.763 104.198 24.0542 104.998 24.0542C105.942 24.0542 106.702 23.6921 107.278 22.9681C107.422 22.7949 107.534 22.6847 107.614 22.6375C107.71 22.5903 107.846 22.5667 108.022 22.5667H110.086C110.23 22.5667 110.35 22.6139 110.446 22.7083C110.558 22.787 110.614 22.8893 110.614 23.0153C110.614 23.3931 110.382 23.8417 109.918 24.3611C109.47 24.8648 108.822 25.3056 107.974 25.6833C107.126 26.0611 106.142 26.25 105.022 26.25ZM107.686 18.8125V18.7417C107.686 17.813 107.446 17.0653 106.966 16.4986C106.502 15.9319 105.854 15.6486 105.022 15.6486C104.19 15.6486 103.542 15.9319 103.078 16.4986C102.614 17.0653 102.382 17.813 102.382 18.7417V18.8125H107.686Z" fill="#EAE8EE"/>
<path d="M118.873 26.25C117.097 26.25 115.681 25.7463 114.625 24.7389C113.585 23.7157 113.033 22.2833 112.969 20.4417L112.945 19.8514L112.969 19.2611C113.049 17.4667 113.609 16.0579 114.649 15.0347C115.705 14.0116 117.113 13.5 118.873 13.5C120.76 13.5 122.216 14.0667 123.24 15.2C124.28 16.3333 124.8 17.8444 124.8 19.7333V20.2292C124.8 20.3866 124.744 20.5204 124.632 20.6306C124.52 20.7407 124.376 20.7958 124.2 20.7958H116.233V20.9847C116.265 21.8505 116.505 22.5824 116.953 23.1806C117.417 23.763 118.049 24.0542 118.849 24.0542C119.793 24.0542 120.553 23.6921 121.128 22.9681C121.272 22.7949 121.384 22.6847 121.464 22.6375C121.56 22.5903 121.696 22.5667 121.872 22.5667H123.936C124.08 22.5667 124.2 22.6139 124.296 22.7083C124.408 22.787 124.464 22.8893 124.464 23.0153C124.464 23.3931 124.232 23.8417 123.768 24.3611C123.32 24.8648 122.672 25.3056 121.824 25.6833C120.976 26.0611 119.993 26.25 118.873 26.25ZM121.536 18.8125V18.7417C121.536 17.813 121.296 17.0653 120.816 16.4986C120.353 15.9319 119.705 15.6486 118.873 15.6486C118.041 15.6486 117.393 15.9319 116.929 16.4986C116.465 17.0653 116.233 17.813 116.233 18.7417V18.8125H121.536Z" fill="#EAE8EE"/>
</svg>
