<svg width="145" height="50" viewBox="0 0 145 50" fill="none" xmlns="http://www.w3.org/2000/svg">
<path d="M3.78826 0L0 6.67614C2.9932 8.94886 8.97959 12.0739 8.97959 12.0739C8.97959 12.0739 3.08673 24.4318 9.2602 38.4943L0.841836 43.4659L4.77041 50L39.5663 29.8295C41.8112 28.5511 41.8112 22.1591 39.5663 20.8807C37.4617 19.6023 15.4337 6.81818 3.78826 0Z" fill="#1157B6"/>
<g filter="url(#filter0_d)">
<path d="M28.9811 26.6838C30.3402 25.9153 30.3339 23.9552 28.9697 23.1955L18.5566 17.3966C17.2235 16.6542 15.5835 17.6181 15.5835 19.1439V30.831C15.5835 32.3626 17.2347 33.3258 18.5679 32.5719L28.9811 26.6838Z" fill="#EAE8EE"/>
</g>
<path d="M53.6596 32.8125C51.4397 32.8125 49.6698 32.1829 48.3499 30.9236C47.05 29.6447 46.36 27.8542 46.28 25.5521L46.25 24.8142L46.28 24.0764C46.38 21.8333 47.08 20.0723 48.3799 18.7934C49.6998 17.5145 51.4597 16.875 53.6596 16.875C56.0194 16.875 57.8393 17.5833 59.1193 19C60.4192 20.4167 61.0692 22.3056 61.0692 24.6667V25.2865C61.0692 25.4832 60.9992 25.6505 60.8592 25.7882C60.7192 25.9259 60.5392 25.9948 60.3192 25.9948H50.3598V26.2309C50.3998 27.3131 50.6997 28.228 51.2597 28.9757C51.8397 29.7037 52.6296 30.0677 53.6296 30.0677C54.8095 30.0677 55.7595 29.6152 56.4794 28.7101C56.6594 28.4936 56.7994 28.3559 56.8994 28.2969C57.0194 28.2378 57.1894 28.2083 57.4094 28.2083H59.9892C60.1692 28.2083 60.3192 28.2674 60.4392 28.3854C60.5792 28.4838 60.6492 28.6117 60.6492 28.7691C60.6492 29.2413 60.3592 29.8021 59.7792 30.4514C59.2193 31.081 58.4093 31.6319 57.3494 32.1042C56.2894 32.5764 55.0595 32.8125 53.6596 32.8125ZM56.9894 23.5156V23.4271C56.9894 22.2662 56.6894 21.3316 56.0894 20.6233C55.5095 19.9149 54.6995 19.5608 53.6596 19.5608C52.6196 19.5608 51.8097 19.9149 51.2297 20.6233C50.6498 21.3316 50.3598 22.2662 50.3598 23.4271V23.5156H56.9894Z" fill="#EAE8EE"/>
<path d="M66.4288 38.125C66.2688 38.125 66.1288 38.066 66.0088 37.9479C65.8888 37.8299 65.8288 37.6921 65.8288 37.5347C65.8288 37.3576 65.8688 37.2002 65.9488 37.0625L68.2887 31.6024L62.529 18.2326C62.449 18.0556 62.409 17.9178 62.409 17.8194C62.429 17.6424 62.499 17.4948 62.619 17.3767C62.739 17.239 62.889 17.1701 63.069 17.1701H65.4988C65.8788 17.1701 66.1488 17.3571 66.3088 17.7309L70.2986 27.3819L74.4083 17.7309C74.5683 17.3571 74.8383 17.1701 75.2183 17.1701H77.6182C77.7781 17.1701 77.9181 17.2292 78.0381 17.3472C78.1781 17.4653 78.2481 17.603 78.2481 17.7604C78.2481 17.8981 78.2081 18.0556 78.1281 18.2326L69.6386 37.5642C69.4586 37.9381 69.1786 38.125 68.7986 38.125H66.4288Z" fill="#EAE8EE"/>
<path d="M86.9975 32.8125C84.7777 32.8125 83.0078 32.1829 81.6878 30.9236C80.3879 29.6447 79.698 27.8542 79.618 25.5521L79.588 24.8142L79.618 24.0764C79.718 21.8333 80.4179 20.0723 81.7178 18.7934C83.0378 17.5145 84.7977 16.875 86.9975 16.875C89.3574 16.875 91.1773 17.5833 92.4572 19C93.7572 20.4167 94.4071 22.3056 94.4071 24.6667V25.2865C94.4071 25.4832 94.3371 25.6505 94.1971 25.7882C94.0571 25.9259 93.8772 25.9948 93.6572 25.9948H83.6977V26.2309C83.7377 27.3131 84.0377 28.228 84.5977 28.9757C85.1776 29.7037 85.9676 30.0677 86.9675 30.0677C88.1475 30.0677 89.0974 29.6152 89.8174 28.7101C89.9974 28.4936 90.1374 28.3559 90.2374 28.2969C90.3573 28.2378 90.5273 28.2083 90.7473 28.2083H93.3272C93.5072 28.2083 93.6572 28.2674 93.7772 28.3854C93.9171 28.4838 93.9871 28.6117 93.9871 28.7691C93.9871 29.2413 93.6972 29.8021 93.1172 30.4514C92.5572 31.081 91.7473 31.6319 90.6873 32.1042C89.6274 32.5764 88.3975 32.8125 86.9975 32.8125ZM90.3273 23.5156V23.4271C90.3273 22.2662 90.0274 21.3316 89.4274 20.6233C88.8474 19.9149 88.0375 19.5608 86.9975 19.5608C85.9576 19.5608 85.1476 19.9149 84.5677 20.6233C83.9877 21.3316 83.6977 22.2662 83.6977 23.4271V23.5156H90.3273Z" fill="#EAE8EE"/>
<path d="M103.501 32.8125C102.001 32.8125 100.741 32.5961 99.7213 32.1632C98.7013 31.7106 97.9414 31.1892 97.4414 30.599C96.9614 29.989 96.7214 29.4676 96.7214 29.0347C96.7214 28.838 96.7914 28.6806 96.9314 28.5625C97.0714 28.4444 97.2314 28.3854 97.4114 28.3854H99.7813C99.9613 28.3854 100.111 28.4543 100.231 28.592C100.311 28.651 100.521 28.8281 100.861 29.1233C101.201 29.4381 101.601 29.684 102.061 29.8611C102.521 30.0382 103.031 30.1267 103.591 30.1267C104.391 30.1267 105.051 29.9693 105.571 29.6545C106.091 29.3397 106.351 28.9068 106.351 28.3559C106.351 27.9427 106.231 27.6082 105.991 27.3524C105.771 27.0966 105.361 26.8704 104.761 26.6736C104.161 26.4572 103.271 26.2309 102.091 25.9948C100.391 25.6406 99.1313 25.0995 98.3114 24.3715C97.5114 23.6435 97.1114 22.6794 97.1114 21.4792C97.1114 20.6921 97.3514 19.9543 97.8314 19.2656C98.3114 18.5573 99.0213 17.9867 99.9613 17.5538C100.921 17.1013 102.061 16.875 103.381 16.875C104.721 16.875 105.881 17.0914 106.861 17.5243C107.841 17.9375 108.581 18.4392 109.081 19.0295C109.601 19.6001 109.861 20.1117 109.861 20.5642C109.861 20.7413 109.791 20.8987 109.651 21.0365C109.531 21.1545 109.381 21.2135 109.201 21.2135H106.981C106.821 21.2135 106.651 21.1447 106.471 21.0069C106.331 20.9086 106.111 20.7216 105.811 20.4462C105.511 20.1707 105.161 19.9543 104.761 19.7969C104.361 19.6395 103.891 19.5608 103.351 19.5608C102.611 19.5608 102.031 19.7182 101.611 20.033C101.211 20.3478 101.011 20.761 101.011 21.2726C101.011 21.6464 101.111 21.9514 101.311 22.1875C101.511 22.4236 101.901 22.6499 102.481 22.8663C103.061 23.0828 103.931 23.2992 105.091 23.5156C107.011 23.8895 108.381 24.4699 109.201 25.2569C110.041 26.044 110.461 27.0081 110.461 28.1493C110.461 29.5266 109.851 30.6481 108.631 31.5139C107.411 32.3796 105.701 32.8125 103.501 32.8125Z" fill="#EAE8EE"/>
<path d="M120.277 32.8125C118.057 32.8125 116.287 32.1829 114.967 30.9236C113.667 29.6447 112.977 27.8542 112.897 25.5521L112.867 24.8142L112.897 24.0764C112.997 21.8333 113.697 20.0723 114.997 18.7934C116.317 17.5145 118.077 16.875 120.277 16.875C122.637 16.875 124.457 17.5833 125.737 19C127.037 20.4167 127.686 22.3056 127.686 24.6667V25.2865C127.686 25.4832 127.616 25.6505 127.477 25.7882C127.337 25.9259 127.157 25.9948 126.937 25.9948H116.977V26.2309C117.017 27.3131 117.317 28.228 117.877 28.9757C118.457 29.7037 119.247 30.0677 120.247 30.0677C121.427 30.0677 122.377 29.6152 123.097 28.7101C123.277 28.4936 123.417 28.3559 123.517 28.2969C123.637 28.2378 123.807 28.2083 124.027 28.2083H126.607C126.787 28.2083 126.937 28.2674 127.057 28.3854C127.197 28.4838 127.267 28.6117 127.267 28.7691C127.267 29.2413 126.977 29.8021 126.397 30.4514C125.837 31.081 125.027 31.6319 123.967 32.1042C122.907 32.5764 121.677 32.8125 120.277 32.8125ZM123.607 23.5156V23.4271C123.607 22.2662 123.307 21.3316 122.707 20.6233C122.127 19.9149 121.317 19.5608 120.277 19.5608C119.237 19.5608 118.427 19.9149 117.847 20.6233C117.267 21.3316 116.977 22.2662 116.977 23.4271V23.5156H123.607Z" fill="#EAE8EE"/>
<path d="M137.59 32.8125C135.371 32.8125 133.601 32.1829 132.281 30.9236C130.981 29.6447 130.291 27.8542 130.211 25.5521L130.181 24.8142L130.211 24.0764C130.311 21.8333 131.011 20.0723 132.311 18.7934C133.631 17.5145 135.391 16.875 137.59 16.875C139.95 16.875 141.77 17.5833 143.05 19C144.35 20.4167 145 22.3056 145 24.6667V25.2865C145 25.4832 144.93 25.6505 144.79 25.7882C144.65 25.9259 144.47 25.9948 144.25 25.9948H134.291V26.2309C134.331 27.3131 134.631 28.228 135.191 28.9757C135.77 29.7037 136.56 30.0677 137.56 30.0677C138.74 30.0677 139.69 29.6152 140.41 28.7101C140.59 28.4936 140.73 28.3559 140.83 28.2969C140.95 28.2378 141.12 28.2083 141.34 28.2083H143.92C144.1 28.2083 144.25 28.2674 144.37 28.3854C144.51 28.4838 144.58 28.6117 144.58 28.7691C144.58 29.2413 144.29 29.8021 143.71 30.4514C143.15 31.081 142.34 31.6319 141.28 32.1042C140.22 32.5764 138.99 32.8125 137.59 32.8125ZM140.92 23.5156V23.4271C140.92 22.2662 140.62 21.3316 140.02 20.6233C139.44 19.9149 138.63 19.5608 137.59 19.5608C136.55 19.5608 135.74 19.9149 135.161 20.6233C134.581 21.3316 134.291 22.2662 134.291 23.4271V23.5156H140.92Z" fill="#EAE8EE"/>
<defs>
<filter id="filter0_d" x="7.5835" y="11.1411" width="34.4132" height="35.6929" filterUnits="userSpaceOnUse" color-interpolation-filters="sRGB">
<feFlood flood-opacity="0" result="BackgroundImageFix"/>
<feColorMatrix in="SourceAlpha" type="matrix" values="0 0 0 0 0 0 0 0 0 0 0 0 0 0 0 0 0 0 127 0"/>
<feOffset dx="2" dy="4"/>
<feGaussianBlur stdDeviation="5"/>
<feColorMatrix type="matrix" values="0 0 0 0 0.101961 0 0 0 0 0.113725 0 0 0 0 0.141176 0 0 0 0.3 0"/>
<feBlend mode="normal" in2="BackgroundImageFix" result="effect1_dropShadow"/>
<feBlend mode="normal" in="SourceGraphic" in2="effect1_dropShadow" result="shape"/>
</filter>
</defs>
</svg>
